<!-- icon666.com - MILLIONS vector ICONS FREE --><svg id="Layer_1" enable-background="new 0 0 480.029 480.029" viewBox="0 0 480.029 480.029" xmlns="http://www.w3.org/2000/svg"><g><path d="m404.004 305.619v18.12c0 18.48-6.99 36.05-19.69 49.47l-49.55 52.39c-19.936 21.091-18.048 45.465-18.54 47.96-.73 3.76-4.02 6.471-7.85 6.47-12.573-.004-135.885-.084-156.36-.09-4.419-.001-8.021-3.603-8-8.03.08-18.54-6.35-35.44-18.57-48.85l-26.67-29.25c-14.67-16.1-22.75-36.96-22.75-58.74 0-.276.103-1.695.365-5.172.443-5.881 6.913-9.336 11.983-6.323 20.814 12.369 48.884 8.268 64.795-11.714 1.912-2.401 4.968-3.551 7.975-2.939 23.039 4.684 46.911-4.956 58.377-25.47 2.837-5.075 10.06-5.452 13.42-.708 5.545 7.83 14.503 16.824 28.262 21.45 5.466 1.838 7.228 8.666 3.367 12.949-7.985 8.856-13.338 18.059-16.834 25.647-1.97 4.28.11 9.32 4.54 10.92 3.92 1.41 8.25-.44 9.99-4.22 9.823-21.357 27.436-37.72 50.6-44.63-.099-.101-48.96-31.16-24.63-81.2 4.789-9.852 11.038-17.437 22.02-18.33 4.336-.353 9.91.863 14.63 4.43 54.047 40.838 53.58 40.314 58.5 45.44 13.06 13.36 20.62 31.55 20.62 50.42z"></path><path d="m326.421 192.273c-1.907-.819-4.039-1.545-6.394-2.075-2.46-.553-4.548-2.171-5.61-4.458l-28.692-61.821c-4.605-9.931-11.688-18.558-21.065-24.51-2.29-1.454-3.655-3.998-3.655-6.71v-57.2c0-19.975 16.805-36.796 37.87-35.42 18.19 1.18 32.44 16.08 33.13 34.65l5.641 149.928c.221 5.908-5.792 9.948-11.225 7.616z"></path><path d="m296.014 184.08c1.748 3.765.24 8.17-3.359 10.24-4.642 2.67-8.636 6.296-11.751 10.589-15.37 21.135-18.64 47.848-10.628 71.248 2.336 6.822-5.087 13.017-11.324 9.399-7.511-4.358-13.757-11.094-17.468-19.786l-13.115-30.686c-1.276-2.985-.612 1.288 2.775-72.144.719-15.595-4.908-29.588-14.647-39.617-3.84-3.954-2.542-10.56 2.526-12.729 18.437-7.891 41.654-2.628 52.191 20.055z"></path><path d="m215.164 162.259-4.72 95.29c-.997 23.172-18.91 37.297-39.126 36.56-4.508-.164-7.911-4.181-7.514-8.675.618-6.989 1.316-22.647 4.83-73.256 1.308-18.836-8.21-36.651-24.173-46.044-2.645-1.557-4.233-4.427-4.027-7.489l.04-.587c1.7-24.14 21.06-35.71 39.34-34.68 18.34 1.041 36.37 14.721 35.35 38.881z"></path><path d="m152.674 211.089-4.75 72.23c-1.23 17.54-15.93 31.24-33.47 31.24-21.022 0-35.715-17.175-34.18-36.23.81-10.11 4.63-62.01 5.55-73.11 1.4-16.83 15.72-30.02 32.62-30.02 20.862 0 35.566 16.881 34.23 35.89z"></path></g></svg>